<?xml version="1.0" encoding="UTF-8" standalone="no"?>
<!DOCTYPE svg PUBLIC "-//W3C//DTD SVG 1.1//EN" "http://www.w3.org/Graphics/SVG/1.1/DTD/svg11.dtd">
<svg width="100%" height="100%" viewBox="0 0 1179 237" version="1.1" xmlns="http://www.w3.org/2000/svg" xmlns:xlink="http://www.w3.org/1999/xlink" xml:space="preserve" xmlns:serif="http://www.serif.com/" style="fill-rule:evenodd;clip-rule:evenodd;stroke-linejoin:round;stroke-miterlimit:2;">
    <g transform="matrix(1,0,0,1,-2211.93,-118.11)">
        <path d="M2216.83,269.968C2213.64,259.273 2211.93,247.945 2211.93,236.22C2211.93,223.878 2213.83,211.975 2217.35,200.787C2217.97,198.796 2218.65,196.827 2219.38,194.882L2330.04,194.882L2223.74,212.598L2223.74,271.654L2216.83,269.968ZM2436.34,271.654L2436.34,212.598L2330.04,212.598L2440.44,194.198C2441.27,196.365 2442.03,198.562 2442.73,200.787C2446.25,211.975 2448.15,223.878 2448.15,236.22C2448.15,247.945 2446.44,259.273 2443.25,269.968L2436.34,271.654ZM2223.74,271.654L2436.34,271.654L2330.04,297.585L2223.74,271.654ZM2320.39,312.945L2240.31,312.992C2234.21,305.869 2228.94,298.013 2224.66,289.574L2320.39,312.945ZM2339.69,312.945L2435.42,289.574C2431.14,298.013 2425.87,305.869 2419.77,312.992L2339.69,312.945ZM2300.51,230.315L2300.51,253.937L2270.98,253.937L2270.98,230.315L2300.51,230.315ZM2389.09,230.315L2389.09,253.937L2359.57,253.937L2359.57,230.315L2389.09,230.315ZM2227.75,177.165C2227.89,176.918 2228.04,176.671 2228.18,176.425L2330.04,159.458L2330,159.449L2419.77,159.449C2424.47,164.941 2428.68,170.87 2432.33,177.165L2227.75,177.165ZM2330.04,141.741L2278.01,130.175C2293.71,122.45 2311.37,118.11 2330.04,118.11C2356.62,118.11 2381.16,126.909 2400.91,141.751L2330.04,141.741ZM2400.91,330.69C2381.16,345.532 2356.62,354.331 2330.04,354.331C2303.47,354.331 2278.94,345.539 2259.2,330.709L2400.91,330.69ZM2243.18,156.218C2247.5,151.535 2252.19,147.202 2257.2,143.265L2284.49,149.333L2243.18,156.218ZM2531.1,238.67L2531.1,354.331L2501.3,354.331L2501.3,118.11L2531.1,118.11L2531.1,228.435L2628.74,118.11L2666.8,118.11L2560.33,229.57L2684.75,354.331L2639.87,354.331L2531.1,238.67ZM2754.03,246.272L2754.03,329.919L2875.01,329.919L2875.01,354.331L2724.6,354.331L2724.6,118.11L2863.53,118.11L2863.53,142.522L2754.03,142.522L2754.03,222.579L2849.89,222.579L2849.89,246.272L2754.03,246.272ZM3133.85,354.331L3108.36,354.331L2956.86,157.248L2960.46,354.331L2932.45,354.331L2932.45,118.11L2963.33,118.11L3109.08,306.885L3106.21,118.11L3133.85,118.11L3133.85,354.331ZM3269.91,257.573L3180.52,118.11L3218.22,118.11L3287.7,233.814L3357.51,118.11L3390.54,118.11L3301.14,256.75L3301.14,354.331L3269.91,354.331L3269.91,257.573Z" style="fill:white;fill-rule:nonzero;"/>
    </g>
</svg>
